# xmcd
#
# Track frame offsets:
#	182
#	20915
#	45445
#	78450
#	93242
#	116872
#	132657
#	157162
#	177822
#	201220
#	217072
#	227095
#	240590
#	257135
#	295287
#	307522
#
# Disc length: 4392 seconds
# Revision: 6
# Processed by: cddbd v1.5.2PL0 Copyright (c) Steve Scherf et al.
# Submitted via: dBpowerAMP V12.0
#
DISCID=e5112610
DTITLE=Various Artist - Blues Masters, Volume 9: Postmodern Blues [Rhino R2 71132]
DYEAR=1993
DGENRE=Blues
TTITLE0=Earl Hooker - Wah Wah Blues
TTITLE1=B.B. King - The Thrill Is Gone
TTITLE2=Albert King - I'll Play The Blues For You, Pts. I and II
TTITLE3=Bobby Bland - I Wouldn't Treat A Dog ( The Way You Treated Me)
TTITLE4=Latimore - Let's Straighten It Out
TTITLE5=Magic Slim and The Teardrops - Wonder Why
TTITLE6=Son Seals - Telephone Angel
TTITLE7=Koko Taylor - I'm A Woman
TTITLE8=Albert Collins - Master Charge
TTITLE9=The Robert Cray Band - Phone Booth
TTITLE10=Delbert and Glen - "B" Movie Boxcar Blues
TTITLE11=The Fabulous Thunderbirds - She's Tuff
TTITLE12=Stevie Ray Vaughan and Double Trouble - Pride And Joy
TTITLE13=George Thorogood and The Destroyers - One Bourbon, One Scotch, One Beer
TTITLE14=The James Harman Band - Jump My Baby
TTITLE15=Johnny Winter - Mojo Boogie
EXTD=
EXTT0=
EXTT1=
EXTT2=
EXTT3=
EXTT4=
EXTT5=
EXTT6=
EXTT7=
EXTT8=
EXTT9=
EXTT10=
EXTT11=
EXTT12=
EXTT13=
EXTT14=
EXTT15=
PLAYORDER=
